<svg width="81" height="81" viewBox="0 0 81 81" version="1.1" xmlns="http://www.w3.org/2000/svg" xmlns:xlink="http://www.w3.org/1999/xlink">
<title>exclamation</title>
<desc>Created using Figma</desc>
<g id="Canvas" transform="translate(-1484 -1099)">
<g id="exclamation">
<g id="Group">
<g id="Group">
<g id="Vector">
<use xlink:href="#path0_fill" transform="translate(1484 1099)" fill="#26C8C2"/>
</g>
</g>
</g>
<g id="Group">
<g id="Group">
<g id="Vector">
<use xlink:href="#path1_fill" transform="translate(1521.34 1119.39)" fill="#26C8C2"/>
</g>
</g>
</g>
<g id="Group">
<g id="Group">
<g id="Vector">
<use xlink:href="#path2_fill" transform="translate(1520.23 1149.97)" fill="#26C8C2"/>
</g>
</g>
</g>
</g>
</g>
<defs>
<path id="path0_fill" d="M 40.5 0C 18.1138 0 0 18.1154 0 40.5C 0 62.8862 18.1154 81 40.5 81C 62.8862 81 81 62.8846 81 40.5C 81 18.1138 62.8846 0 40.5 0ZM 40.5 74.6719C 21.6117 74.6719 6.32812 59.3871 6.32812 40.5C 6.32812 21.6117 21.6129 6.32812 40.5 6.32812C 59.3883 6.32812 74.6719 21.6129 74.6719 40.5C 74.6719 59.3883 59.3871 74.6719 40.5 74.6719Z"/>
<path id="path1_fill" d="M 3.16406 -1.73807e-07C 1.41655 -1.73807e-07 0 1.41655 0 3.16406L 0 23.5395C 0 25.287 1.41655 26.7036 3.16406 26.7036C 4.91157 26.7036 6.32812 25.287 6.32812 23.5395L 6.32812 3.16406C 6.32812 1.41655 4.91157 -1.73807e-07 3.16406 -1.73807e-07Z"/>
<path id="path2_fill" d="M 4.27148 8.54297C 6.63056 8.54297 8.54297 6.63056 8.54297 4.27148C 8.54297 1.91241 6.63056 0 4.27148 0C 1.91241 0 0 1.91241 0 4.27148C 0 6.63056 1.91241 8.54297 4.27148 8.54297Z"/>
</defs>
</svg>
