<?xml version="1.0" encoding="utf-8"?>
<!-- Generator: Adobe Illustrator 22.0.0, SVG Export Plug-In . SVG Version: 6.00 Build 0)  -->
<svg version="1.1" id="Calque_1" xmlns="http://www.w3.org/2000/svg" xmlns:xlink="http://www.w3.org/1999/xlink" x="0px" y="0px"
	 viewBox="0 0 80.6 88.2" style="enable-background:new 0 0 80.6 88.2;" xml:space="preserve">
<style type="text/css">
	.st0{fill:#26C8C2;}
</style>
<g>
	<path class="st0" d="M63.6,22.1H16.8c-3.9,0-7,3.1-7,7v30.5c0,3.9,3.1,7,7,7h46.7c3.9,0,7-3.1,7-7V29.1
		C70.6,25.2,67.4,22.1,63.6,22.1z M16.8,26.1h46.7c0.3,0,0.6,0,0.9,0.1L40.2,44.8L16,26.2C16.3,26.1,16.6,26.1,16.8,26.1z
		 M66.6,59.5c0,1.7-1.3,3-3,3H16.8c-1.7,0-3-1.3-3-3v-30l26.4,20.3l26.4-20.2V59.5z"/>
</g>
</svg>
