<?xml version="1.0" encoding="utf-8"?>
<!-- Generator: Adobe Illustrator 22.0.0, SVG Export Plug-In . SVG Version: 6.00 Build 0)  -->
<svg version="1.1" id="Calque_1" xmlns="http://www.w3.org/2000/svg" xmlns:xlink="http://www.w3.org/1999/xlink" x="0px" y="0px"
	 viewBox="0 0 85 86.3" style="enable-background:new 0 0 85 86.3;" xml:space="preserve">
<style type="text/css">
	.st0{fill:#26C8C2;}
</style>
<path class="st0" d="M63.3,22.1c-4.7-6.9-12.2-10.8-20.6-10.8s-15.9,3.9-20.6,10.8c-4.7,6.8-5.8,15.4-2.9,23c0.8,2,2,4.1,3.6,6
	l19.9,23.3l19.8-23.3c1.6-1.9,2.9-3.9,3.6-6C69.1,37.5,68,28.9,63.3,22.1z M42.7,44.3c-5.6,0-10.2-4.5-10.2-10s4.6-10,10.2-10
	s10.2,4.5,10.2,10S48.3,44.3,42.7,44.3z"/>
</svg>
