<svg width="81" height="90" viewBox="0 0 81 90" version="1.1" xmlns="http://www.w3.org/2000/svg" xmlns:xlink="http://www.w3.org/1999/xlink">
<title>Group</title>
<desc>Created using Figma</desc>
<g id="Canvas" transform="translate(-1482 -3744)">
<g id="Group">
<g id="Vector">
<use xlink:href="#path0_fill" transform="translate(1482 3744)" fill="#26C8C2"/>
</g>
<g id="Vector">
<use xlink:href="#path1_fill" transform="translate(1491.26 3792.9)" fill="#26C8C2"/>
</g>
<g id="Vector">
<use xlink:href="#path2_fill" transform="translate(1512.97 3792.9)" fill="#26C8C2"/>
</g>
<g id="Vector">
<use xlink:href="#path3_fill" transform="translate(1536.36 3792.9)" fill="#26C8C2"/>
</g>
<g id="Vector">
<use xlink:href="#path4_fill" transform="translate(1496.27 3814.53)" fill="#26C8C2"/>
</g>
<g id="Vector">
<use xlink:href="#path5_fill" transform="translate(1517.99 3814.53)" fill="#26C8C2"/>
</g>
</g>
</g>
<defs>
<path id="path0_fill" d="M 66.4466 8.2846C 65.2176 8.2846 64.0585 8.56248 63.0081 9.0349C 60.9086 4.86528 56.5898 1.99494 51.5878 1.99494C 48.3344 1.99494 45.3734 3.21626 43.1171 5.2112C 39.3226 1.98328 34.3106 0 28.7977 0C 17.127 0 7.65584 8.80696 7.41535 19.7522C 3.03963 21.7755 1.35913e-07 26.1781 1.35913e-07 31.298C 1.35913e-07 37.2148 4.0568 42.1766 9.54802 43.6041L 68.6813 44.0085C 75.5238 43.764 81 38.1749 81 31.298C 81 26.3878 78.2077 22.1348 74.1208 20.0101C 74.5767 18.9784 74.8406 17.8453 74.8406 16.6458C 74.8407 12.0283 71.0829 8.2846 66.4466 8.2846Z"/>
<path id="path1_fill" d="M 11.0516 15.8969C 12.5363 13.0366 12.715 -3.82329e-07 12.715 -3.82329e-07C 12.715 -3.82329e-07 2.13986 7.68064 0.655147 10.5407C -0.829564 13.401 0.294492 16.9184 3.16541 18.3976C 6.03633 19.8768 9.56691 18.7571 11.0516 15.8969Z"/>
<path id="path2_fill" d="M 11.0516 15.8969C 12.5363 13.0366 12.715 -3.82329e-07 12.715 -3.82329e-07C 12.715 -3.82329e-07 2.13986 7.68064 0.655151 10.5407C -0.82956 13.401 0.294498 16.9184 3.16524 18.3976C 6.03634 19.8768 9.56691 18.7571 11.0516 15.8969Z"/>
<path id="path3_fill" d="M 3.16533 18.3976C 6.03625 19.8768 9.56684 18.7569 11.0515 15.8969C 12.5363 13.0366 12.7149 -3.82329e-07 12.7149 -3.82329e-07C 12.7149 -3.82329e-07 2.13978 7.68064 0.655071 10.5407C -0.829465 13.4011 0.294414 16.9184 3.16533 18.3976Z"/>
<path id="path4_fill" d="M 3.16541 18.3976C 6.03633 19.8768 9.56691 18.7569 11.0516 15.8969C 12.5363 13.0366 12.715 -2.42142e-06 12.715 -2.42142e-06C 12.715 -2.42142e-06 2.14003 7.68064 0.655147 10.5407C -0.829565 13.401 0.294492 16.9184 3.16541 18.3976Z"/>
<path id="path5_fill" d="M 3.16534 18.3976C 6.03626 19.8768 9.56683 18.7569 11.0515 15.8969C 12.5363 13.0366 12.7149 -2.42142e-06 12.7149 -2.42142e-06C 12.7149 -2.42142e-06 2.13978 7.68064 0.655071 10.5407C -0.829466 13.401 0.294416 16.9184 3.16534 18.3976Z"/>
</defs>
</svg>
