<?xml version="1.0" encoding="utf-8"?>
<!-- Generator: Adobe Illustrator 21.0.2, SVG Export Plug-In . SVG Version: 6.00 Build 0)  -->
<svg version="1.1" id="Calque_1" xmlns="http://www.w3.org/2000/svg" xmlns:xlink="http://www.w3.org/1999/xlink" x="0px" y="0px"
	 viewBox="0 0 24 30" style="enable-background:new 0 0 24 30;" xml:space="preserve">
<style type="text/css">
	.st0{fill:#26C8C2;}
</style>
<g>
	<path class="st0" d="M4,8v4c0,1.1,0.9,2,2,2h4v3c0,0.6-0.4,1-1,1H4.8c-0.4-1.2-1.5-2-2.8-2v6c1.3,0,2.4-0.8,2.8-2H9
		c1.7,0,3-1.3,3-3v-3h6V6H6C4.9,6,4,6.9,4,8z M15,8c0.6,0,1,0.4,1,1s-0.4,1-1,1s-1-0.4-1-1S14.4,8,15,8z"/>
	<rect x="19" y="8" class="st0" width="2" height="4"/>
</g>
</svg>
