<svg width="81" height="80" viewBox="0 0 81 80" version="1.1" xmlns="http://www.w3.org/2000/svg" xmlns:xlink="http://www.w3.org/1999/xlink">
<title>Vector</title>
<desc>Created using Figma</desc>
<g id="Canvas" transform="translate(-1484 -787)">
<g id="Vector">
<use xlink:href="#path0_fill" transform="translate(1484 787)" fill="#26C8C2"/>
</g>
</g>
<defs>
<path id="path0_fill" d="M 80.5262 21.3811C 80.0642 20.73 79.3262 20.3351 78.5329 20.3135L 71.2015 20.1166L 72.0347 17.4108C 72.45 16.0619 71.703 14.6286 70.3666 14.2096L 25.4158 0.116382C 24.0783 -0.30414 22.6589 0.451047 22.2436 1.79957L 15.2602 24.4782C 14.8449 25.8271 15.5919 27.2604 16.9283 27.6794L 26.0339 30.5343L 24.5298 35.4191C 24.3303 36.0669 24.394 36.768 24.7069 37.3683C 25.0197 37.9685 25.5559 38.4187 26.1979 38.62L 30.3343 39.917L 20.0618 56.675C 18.5751 56.013 16.9337 55.6429 15.2073 55.6429L 2.53456 55.6429C 1.13476 55.6429 0 56.7879 0 58.2004L 0 77.4425C 0 78.855 1.13476 80 2.53456 80L 15.2073 80C 21.8624 80 27.2766 74.5368 27.2766 67.8216C 27.2766 64.6902 26.0983 61.8317 24.167 59.6717C 24.2148 59.6081 24.263 59.5449 24.3053 59.4759L 35.3339 41.4847L 40.7202 43.1734C 40.9708 43.2519 41.2239 43.2892 41.473 43.2892C 42.5538 43.2892 43.5549 42.5859 43.8927 41.4898L 45.3968 36.605L 61.8787 41.7726C 62.1245 41.8497 62.378 41.8877 62.6307 41.8877C 63.0381 41.8877 63.4432 41.7887 63.8104 41.5936C 64.4053 41.2779 64.8514 40.7368 65.0509 40.0891L 65.884 37.3833L 72.0354 41.4135C 72.4514 41.686 72.9319 41.826 73.416 41.826C 73.706 41.826 73.9975 41.7755 74.2774 41.6736C 75.024 41.4014 75.6008 40.792 75.8361 40.0273L 80.8857 23.6291C 81.1214 22.8644 80.9882 22.0322 80.5262 21.3811ZM 5.06912 60.7575L 8.44841 60.7575L 8.44841 74.8847L 5.06912 74.8847L 5.06912 60.7575ZM 15.2073 74.8847L 13.5175 74.8847L 13.5175 60.7575L 15.2073 60.7575C 19.0671 60.7575 22.2074 63.9262 22.2074 67.8209C 22.2074 71.7156 19.0671 74.8847 15.2073 74.8847ZM 39.8041 37.5298L 30.1225 34.494L 30.8745 32.0516L 40.5562 35.0874L 39.8041 37.5298ZM 60.9626 36.1294L 20.8529 23.5535L 26.3322 5.75964L 66.442 18.3351L 65.3677 21.8239L 62.0369 32.6399C 62.0369 32.6406 62.0366 32.6409 62.0366 32.6417L 60.9626 36.1294ZM 71.9887 35.2843L 67.4471 32.3088L 69.6388 25.1914L 75.0519 25.3368L 71.9887 35.2843Z"/>
</defs>
</svg>
