<svg width="83" height="65" viewBox="0 0 83 65" version="1.1" xmlns="http://www.w3.org/2000/svg" xmlns:xlink="http://www.w3.org/1999/xlink">
<title>moon-and-stars</title>
<desc>Created using Figma</desc>
<g id="Canvas" transform="translate(-1483 -1412)">
<g id="moon-and-stars">
<g id="Group">
<g id="Group">
<g id="Group">
<g id="Group">
<g id="Group">
<g id="Vector">
<use xlink:href="#path0_fill" transform="translate(1483 1412)" fill="#26C8C2"/>
</g>
</g>
</g>
<g id="Group">
<g id="Vector">
<use xlink:href="#path1_fill" transform="translate(1516.33 1412.88)" fill="#26C8C2"/>
</g>
</g>
<g id="Group">
<g id="Vector">
<use xlink:href="#path2_fill" transform="translate(1547.45 1450.45)" fill="#26C8C2"/>
</g>
</g>
<g id="Group">
<g id="Vector">
<use xlink:href="#path3_fill" transform="translate(1543.26 1417.26)" fill="#26C8C2"/>
</g>
</g>
</g>
</g>
</g>
</g>
</g>
<defs>
<path id="path0_fill" d="M 22.1385 18.7785C 22.1385 12.7833 23.7644 7.17426 26.5806 2.33223C 27.2629 1.16097 26.234 -0.286406 24.9148 0.0492703C 9.70851 3.933 -1.28975 18.2263 0.122004 34.8621C 1.45755 50.5649 14.2178 63.3819 29.9957 64.851C 40.9431 65.8706 50.8944 61.5826 57.6156 54.297C 58.5229 53.3117 57.7481 51.7127 56.4071 51.7686C 56.0515 51.7849 55.6904 51.7921 55.3293 51.7921C 36.9982 51.7921 22.1385 37.0133 22.1385 18.7785Z"/>
<path id="path1_fill" d="M 8.66477 0.450726L 10.3288 5.20253L 15.3878 5.31261C 16.0302 5.32705 16.2915 6.13556 15.7834 6.51996L 11.7532 9.56451L 13.214 14.3813C 13.4027 14.9913 12.7077 15.4894 12.1833 15.1284L 8.02422 12.2589L 3.86879 15.1284C 3.34256 15.4912 2.65483 14.9913 2.83629 14.3813L 4.29704 9.56451L 0.266824 6.51996C -0.241263 6.13556 0.0236655 5.32705 0.662403 5.31261L 5.72149 5.20253L 7.3873 0.450726C 7.59779 -0.150242 8.45246 -0.150242 8.66477 0.450726Z"/>
<path id="path2_fill" d="M 8.6014 0.495394L 10.2001 5.06131L 15.0614 5.16418C 15.7672 5.18042 16.0576 6.07014 15.4969 6.49425L 11.6245 9.41968L 13.0254 14.047C 13.2268 14.7165 12.4647 15.2687 11.8876 14.8663L 7.8937 12.1105L 3.90159 14.8663C 3.32455 15.2687 2.56061 14.7165 2.76566 14.047L 4.16653 9.41968L 0.295993 6.49425C -0.266531 6.07194 0.0256238 5.17861 0.727872 5.16418L 5.58917 5.06131L 7.19327 0.495394C 7.42554 -0.16513 8.36731 -0.16513 8.6014 0.495394Z"/>
<path id="path3_fill" d="M 12.1926 0.576604L 14.5969 7.4327L 21.8934 7.5879C 22.7136 7.60595 23.0529 8.64185 22.3978 9.13634L 16.5839 13.529L 18.6924 20.4825C 18.9301 21.264 18.0464 21.9047 17.3696 21.4372L 11.3705 17.2972L 5.37331 21.4372C 4.69828 21.9047 3.81275 21.2622 4.05047 20.4825L 6.15721 13.529L 0.341435 9.13634C -0.30819 8.64365 0.0293239 7.60414 0.847706 7.5879L 8.14601 7.4327L 10.5485 0.576604C 10.8262 -0.192202 11.9204 -0.192202 12.1926 0.576604Z"/>
</defs>
</svg>
