<?xml version="1.0" encoding="utf-8"?>
<!-- Generator: Adobe Illustrator 22.0.0, SVG Export Plug-In . SVG Version: 6.00 Build 0)  -->
<svg version="1.1" id="Calque_1" xmlns="http://www.w3.org/2000/svg" xmlns:xlink="http://www.w3.org/1999/xlink" x="0px" y="0px"
	 viewBox="0 0 56 70.2" style="enable-background:new 0 0 56 70.2;" xml:space="preserve">
<style type="text/css">
	.st0{fill:#26C8C2;}
</style>
<path class="st0" d="M51.8,26.6h-7.6V16.1c0-8.9-7.3-16.2-16.2-16.2S11.8,7.1,11.8,16.1v10.5H4.2c-2.1,0-3.9,1.7-3.9,3.9V66
	c0,2.1,1.7,3.9,3.9,3.9h47.5c2.1,0,3.9-1.7,3.9-3.9V30.5C55.6,28.4,53.9,26.6,51.8,26.6z M29.4,47.6v6.9c0,0.4-0.4,0.8-0.8,0.8h-1.3
	c-0.4,0-0.8-0.4-0.8-0.8v-6.9c-1.1-0.5-1.9-1.7-1.9-3c0-1.8,1.5-3.3,3.3-3.3s3.3,1.5,3.3,3.3C31.3,45.9,30.6,47,29.4,47.6z
	 M36.4,26.6H19.6V16.1c0-4.7,3.8-8.4,8.4-8.4s8.4,3.8,8.4,8.4V26.6z"/>
</svg>
