<?xml version="1.0" encoding="utf-8"?>
<!-- Generator: Adobe Illustrator 21.0.2, SVG Export Plug-In . SVG Version: 6.00 Build 0)  -->
<svg version="1.1" id="Calque_1" xmlns="http://www.w3.org/2000/svg" xmlns:xlink="http://www.w3.org/1999/xlink" x="0px" y="0px"
	 viewBox="0 0 100 125" style="enable-background:new 0 0 100 125;" xml:space="preserve">
<style type="text/css">
	.st0{fill:#26C8C2;}
</style>
<title>All4</title>
<path class="st0" d="M31.9,100c-2-0.4-3.8-1.4-5.2-2.9c-1.6-1.7-2.4-3.9-2.4-6.2c0-27.3,0-54.6,0-81.9c-0.1-4.3,2.9-8,7.2-8.9
	c0.2,0,0.3-0.1,0.4-0.2h36.3c0.2,0.1,0.4,0.2,0.6,0.2c4,1,6.9,4.6,6.8,8.8c0,27.2,0,54.5,0,81.7c0.1,4.4-3,8.2-7.3,9.1
	c-0.1,0-0.2,0.1-0.3,0.2C68.1,100,31.9,100,31.9,100z M27.3,81.6h45.4V18.2H27.3V81.6z M50,93.8c2.5,0,4.5-2,4.5-4.4c0,0,0,0,0-0.1
	c-0.1-2.5-2.2-4.4-4.7-4.3c-2.3,0.1-4.2,2-4.3,4.3C45.5,91.8,47.5,93.8,50,93.8C50,93.8,50,93.8,50,93.8z M50,9h-5.6
	c-1.2,0-1.9,0.6-1.9,1.6c0,0.9,0.7,1.6,1.6,1.6c0.1,0,0.2,0,0.2,0h11.3c1.2,0,1.9-0.6,1.9-1.6c0-0.9-0.7-1.6-1.6-1.6
	c-0.1,0-0.2,0-0.2,0H50z"/>
</svg>
