<svg width="84" height="84" viewBox="0 0 84 84" version="1.1" xmlns="http://www.w3.org/2000/svg" xmlns:xlink="http://www.w3.org/1999/xlink">
<title>objective-searching</title>
<desc>Created using Figma</desc>
<g id="Canvas" transform="translate(-1482 -1626)">
<g id="objective-searching">
<g id="Group">
<g id="Layer 1 161">
<g id="Group">
<g id="Vector">
<use xlink:href="#path0_fill" transform="translate(1482 1626)" fill="#26C8C2"/>
</g>
<g id="Vector">
<use xlink:href="#path1_fill" transform="translate(1515.92 1659.92)" fill="#26C8C2"/>
</g>
</g>
</g>
</g>
</g>
</g>
<defs>
<path id="path0_fill" d="M 80.7617 38.767L 77.3769 38.767C 75.8364 21.7461 62.2454 8.15659 45.2249 6.61427L 45.2249 3.23297C 45.2302 1.44939 43.7809 0 41.9973 0C 40.2138 0 38.7662 1.4476 38.7662 3.23118L 38.7662 6.61606C 21.7457 8.15659 8.15642 21.7461 6.61413 38.767L 3.23111 38.767C 1.44757 38.767 0 40.2146 0 41.9982C 0 43.7818 1.44757 45.2312 3.23111 45.2312L 6.61592 45.2312C 8.1582 62.2503 21.7475 75.8398 38.768 77.3822L 38.768 80.7688C 38.768 82.5524 40.2156 84 41.9991 84C 43.7826 84 45.2302 82.5524 45.2302 80.7688L 45.2302 77.3822C 62.2508 75.8398 75.8418 62.2503 77.3823 45.2312L 80.7671 45.2312C 82.5506 45.2312 84 43.7818 84 41.9982C 84 40.2146 82.5453 38.767 80.7617 38.767ZM 38.7662 13.1142L 38.7662 16.1523C 38.7662 17.9377 40.2138 19.3835 41.9973 19.3835C 43.7809 19.3835 45.2302 17.9377 45.2302 16.1523L 45.2302 13.1142C 56.8912 14.4116 66.4898 22.6272 69.8138 33.5575C 63.5303 28.6303 53.5064 22.6147 41.9991 22.6147C 30.4901 22.6147 20.4661 28.6303 14.1826 33.5575C 17.5048 22.629 27.1035 14.4099 38.7662 13.1142ZM 29.0747 41.9982C 29.0747 34.8728 34.8721 29.0771 41.9973 29.0771C 49.1208 29.0771 54.9182 34.8728 54.9182 41.9982C 54.9182 49.1218 49.1208 54.9194 41.9973 54.9194C 34.8721 54.9212 29.0747 49.1236 29.0747 41.9982ZM 24.0814 49.3774C 19.7709 46.811 16.3307 43.914 14.2666 41.9929C 16.3307 40.0681 19.7727 37.1657 24.0904 34.5958C 23.1432 36.878 22.6142 39.3782 22.6142 41.9982C 22.6142 44.611 23.1396 47.1023 24.0814 49.3774ZM 59.9132 34.6208C 64.2237 37.1872 67.6621 40.0842 69.7281 42.0054C 67.6621 43.9301 64.2202 46.8325 59.9025 49.4042C 60.8497 47.122 61.3786 44.62 61.3786 42C 61.3804 39.3872 60.855 36.8977 59.9132 34.6208ZM 45.2302 70.884L 45.2302 67.8459C 45.2302 66.0605 43.7809 64.6147 41.9973 64.6147C 40.2138 64.6147 38.7662 66.0605 38.7662 67.8459L 38.7662 70.884C 27.1035 69.5848 17.5048 61.371 14.1808 50.4408C 20.4643 55.3697 30.4883 61.3835 41.9973 61.3835C 53.5046 61.3835 63.5303 55.3697 69.812 50.4408C 66.4898 61.3692 56.8912 69.5884 45.2302 70.884Z"/>
<path id="path1_fill" d="M 8.07778 16.1559C 12.539 16.1559 16.1556 12.5393 16.1556 8.07795C 16.1556 3.61662 12.539 0 8.07778 0C 3.61655 0 0 3.61662 0 8.07795C 0 12.5393 3.61655 16.1559 8.07778 16.1559Z"/>
</defs>
</svg>
