<svg width="76" height="81" viewBox="0 0 76 81" version="1.1" xmlns="http://www.w3.org/2000/svg" xmlns:xlink="http://www.w3.org/1999/xlink">
<title>Vector</title>
<desc>Created using Figma</desc>
<g id="Canvas" transform="translate(-1483 -2757)">
<g id="Vector">
<use xlink:href="#path0_fill" transform="translate(1483 2757)" fill="#26C8C2"/>
</g>
</g>
<defs>
<path id="path0_fill" d="M 61.57 52.0378C 56.933 52.0378 52.7982 54.2579 50.1533 57.6889L 28.0062 45.2598C 28.5251 43.7629 28.8097 42.1483 28.8097 40.4832C 28.8097 38.8013 28.5251 37.2035 27.9894 35.6898L 50.1198 23.2774C 52.748 26.7253 56.8996 28.9622 61.5533 28.9622C 69.4881 28.9622 75.9665 22.4701 75.9665 14.4811C 75.9665 6.49211 69.5049 0 61.5533 0C 53.6018 0 47.1401 6.49211 47.1401 14.4811C 47.1401 16.163 47.4247 17.7776 47.9604 19.2745L 25.8467 31.6869C 23.2185 28.2222 19.067 26.0021 14.4132 26.0021C 6.47841 26.0021 3.19292e-08 32.4942 3.19292e-08 40.4832C 3.19292e-08 48.4722 6.47841 54.9643 14.43 54.9643C 19.0837 54.9643 23.2352 52.7274 25.8802 49.2627L 48.0106 61.6919C 47.4749 63.2056 47.1736 64.837 47.1736 66.5189C 47.1736 74.4911 53.6352 81 61.5868 81C 69.5383 81 76 74.5079 76 66.5189C 76 58.5299 69.5216 52.0378 61.57 52.0378ZM 61.57 4.55793C 67.0273 4.55793 71.4634 9.01495 71.4634 14.4979C 71.4634 19.9809 67.0273 24.4379 61.57 24.4379C 56.1128 24.4379 51.6767 19.9809 51.6767 14.4979C 51.6767 9.01495 56.1295 4.55793 61.57 4.55793ZM 14.43 50.4232C 8.97269 50.4232 4.53656 45.9661 4.53656 40.4832C 4.53656 35.0002 8.97269 30.5432 14.43 30.5432C 19.8872 30.5432 24.3233 35.0002 24.3233 40.4832C 24.3233 45.9661 19.8705 50.4232 14.43 50.4232ZM 61.57 76.4421C 56.1128 76.4421 51.6767 71.985 51.6767 66.5021C 51.6767 61.0191 56.1128 56.5621 61.57 56.5621C 67.0273 56.5621 71.4634 61.0191 71.4634 66.5021C 71.4634 71.985 67.0273 76.4421 61.57 76.4421Z"/>
</defs>
</svg>
