<?xml version="1.0" encoding="utf-8"?>
<!-- Generator: Adobe Illustrator 21.0.2, SVG Export Plug-In . SVG Version: 6.00 Build 0)  -->
<svg version="1.1" id="Calque_1" xmlns="http://www.w3.org/2000/svg" xmlns:xlink="http://www.w3.org/1999/xlink" x="0px" y="0px"
	 viewBox="0 0 100 125" style="enable-background:new 0 0 100 125;" xml:space="preserve">
<style type="text/css">
	.st0{fill:#26C8C2;}
</style>
<path class="st0" d="M73.8,41.7h-7.6V31.2C66.2,22.3,58.9,15,50,15s-16.2,7.2-16.2,16.2v10.5h-7.6c-2.1,0-3.9,1.7-3.9,3.9v35.5
	c0,2.1,1.7,3.9,3.9,3.9h47.5c2.1,0,3.9-1.7,3.9-3.9V45.6C77.6,43.5,75.9,41.7,73.8,41.7z M51.4,62.7v6.9c0,0.4-0.4,0.8-0.8,0.8h-1.3
	c-0.4,0-0.8-0.4-0.8-0.8v-6.9c-1.1-0.5-1.9-1.7-1.9-3c0-1.8,1.5-3.3,3.3-3.3s3.3,1.5,3.3,3.3C53.3,61,52.6,62.1,51.4,62.7z
	 M58.4,41.7H41.6V31.2c0-4.7,3.8-8.4,8.4-8.4s8.4,3.8,8.4,8.4V41.7z"/>
</svg>
